HIERARCHY
ROOT Hips
{
  OFFSET 53.3169 58.4778 11.1866
  CHANNELS 6 Xposition Yposition Zposition Zrotation Xrotation Yrotation
  JOINT spine
  {
    OFFSET 0 8.1325 0.467659
    CHANNELS 3 Zrotation Xrotation Yrotation
    JOINT spine1
    {
      OFFSET 0 10.3498 0
      CHANNELS 3 Zrotation Xrotation Yrotation
      JOINT spine2
      {
        OFFSET 0 9.91699 0
        CHANNELS 3 Zrotation Xrotation Yrotation
        JOINT Neck
        {
          OFFSET 0 25.461 1.2139
          CHANNELS 3 Zrotation Xrotation Yrotation
          JOINT Head
          {
            OFFSET 0 7.69245 0
            CHANNELS 3 Zrotation Xrotation Yrotation
            End Site
            {
              OFFSET 0 18.62 -6.14063
            }
          }
        }
        JOINT RightShoulder
        {
          OFFSET -4.17575 10.7096 -0.581445
          CHANNELS 3 Zrotation Xrotation Yrotation
          JOINT RightArm
          {
            OFFSET 0 14.0466 0
            CHANNELS 3 Zrotation Xrotation Yrotation
            JOINT RightArmRoll
            {
              OFFSET 0 7.09099 0
              CHANNELS 3 Zrotation Xrotation Yrotation
              JOINT RightForeArm
              {
                OFFSET 0 20.6535 0
                CHANNELS 3 Zrotation Xrotation Yrotation
                JOINT RightForeArmRoll
                {
                  OFFSET 0 7.95718 0
                  CHANNELS 3 Zrotation Xrotation Yrotation
                  JOINT RightHand
                  {
                    OFFSET 0 15.9683 0
                    CHANNELS 3 Zrotation Xrotation Yrotation
                    End Site
                    {
                      OFFSET 0 0 0
                    }
                  }
                }
              }
            }
          }
        }
        JOINT LeftShoulder
        {
          OFFSET 4.17575 10.7096 -0.581445
          CHANNELS 3 Zrotation Xrotation Yrotation
          JOINT LeftArm
          {
            OFFSET 0 14.0466 0
            CHANNELS 3 Zrotation Xrotation Yrotation
            JOINT LeftArmRoll
            {
              OFFSET 0 7.09098 0
              CHANNELS 3 Zrotation Xrotation Yrotation
              JOINT LeftForeArm
              {
                OFFSET 0 20.6535 0
                CHANNELS 3 Zrotation Xrotation Yrotation
                JOINT LeftForeArmRoll
                {
                  OFFSET 0 7.95718 0
                  CHANNELS 3 Zrotation Xrotation Yrotation
                  JOINT LeftHand
                  {
                    OFFSET 0 15.9683 0
                    CHANNELS 3 Zrotation Xrotation Yrotation
                    End Site
                    {
                      OFFSET 0 0 0
                    }
                  }
                }
              }
            }
          }
        }
      }
    }
  }
  JOINT RightUpLeg
  {
    OFFSET -7.20834 -1.32182 -1.10884
    CHANNELS 3 Zrotation Xrotation Yrotation
    JOINT RightUpLegRoll
    {
      OFFSET 0 18.7238 0
      CHANNELS 3 Zrotation Xrotation Yrotation
      JOINT RightLeg
      {
        OFFSET 0 -23.1866 0
        CHANNELS 3 Zrotation Xrotation Yrotation
        JOINT RightLegRoll
        {
          OFFSET 0 23.2624 0
          CHANNELS 3 Zrotation Xrotation Yrotation
          JOINT RightFoot
          {
            OFFSET 0 19.3621 0
            CHANNELS 3 Zrotation Xrotation Yrotation
            JOINT RightToeBase
            {
              OFFSET 0 16.1857 0
              CHANNELS 3 Zrotation Xrotation Yrotation
              End Site
              {
                OFFSET 0.00686052 7.83863 -0.903522
              }
            }
          }
        }
      }
    }
  }
  JOINT LeftUpLeg
  {
    OFFSET 7.20834 -1.32182 -1.10884
    CHANNELS 3 Zrotation Xrotation Yrotation
    JOINT LeftUpLegRoll
    {
      OFFSET 0 18.7239 0
      CHANNELS 3 Zrotation Xrotation Yrotation
      JOINT LeftLeg
      {
        OFFSET 0 23.1865 0
        CHANNELS 3 Zrotation Xrotation Yrotation
        JOINT LeftLegRoll
        {
          OFFSET 0 23.4775 0
          CHANNELS 3 Zrotation Xrotation Yrotation
          JOINT LeftFoot
          {
            OFFSET 0 19.147 0
            CHANNELS 3 Zrotation Xrotation Yrotation
            JOINT LeftToeBase
            {
              OFFSET 0 16.1857 0
              CHANNELS 3 Zrotation Xrotation Yrotation
              End Site
              {
                OFFSET -0.0307459 7.83862 -0.903522
              }
            }
          }
        }
      }
    }
  }
}
MOTION
Frames: 9
Frame Time: 0.00208333
51.9116 67.9411 19.7962 -0.744031 27.4172 1.03247 1.05092 2.96417 -0.0248879 2.12354 9.92496 -0.247925 2.13356 11.5694 -0.284776 -12.8454 9.80798 -9.57141 10.2584 19.2401 -13.7815 40.4527 -9.67122 -5.85192 130.035 30.9855 -41.3406 -2.72341e-005 4.11935e-006 1.97371e-005 23.4918 72.7267 -20.8534 -7.69094e-006 6.65225e-006 -3 8.02981 -4.95142 0.697644 -56.7399 -6.51239 3.94064 -116.092 31.5845 37.7584 1.94688e-005 -3.78355e-006 1.07638e-005 -1.44054 70.7165 1.06865 4.42015e-006 -2.92495e-007 3.00659 -8.02914 -4.95145 -0.697676 45.7878 79.7909 137.896 180 7.01598e-015 179.172 163.809 74.4963 -170.23 3.98723e-007 3.14543e-006 1.50969 -24.2205 68.9783 20.5331 8.13649 25.2327 -3.48773 -53.7912 77.7318 -127.475 4.5067e-006 -1.99009e-005 -0.671351 -6.73634 -75.0655 -2.3327 -1.6041e-006 -1.61639e-006 -1.52507 18.0197 68.4247 -19.8766 -8.13607 25.2327 3.48756 
51.9503 67.8482 19.7267 -0.705417 27.3129 1.03089 1.04849 2.96574 -0.0253258 2.11877 9.92839 -0.247637 2.12878 11.5728 -0.284405 -12.8859 9.79246 -9.56663 10.2915 19.2616 -13.7898 40.4178 -9.67806 -5.8576 129.959 30.9133 -41.4048 -2.72341e-005 4.11935e-006 1.97371e-005 23.5508 72.921 -20.9739 -7.69094e-006 6.65225e-006 -3 8.02981 -4.95142 0.697644 -56.7289 -6.50605 3.936 -116.086 31.5605 37.825 1.94688e-005 -3.78355e-006 1.07638e-005 -1.35062 70.8021 1.00395 4.42015e-006 -2.92495e-007 3.00659 -8.02914 -4.95145 -0.697676 45.5971 79.7193 138.106 180 7.01597e-015 179.17 163.827 74.648 -170.225 3.98723e-007 3.14543e-006 1.51931 -24.219 68.958 20.5126 8.13649 25.2327 -3.48773 -53.5445 77.713 -127.763 4.5067e-006 -1.99009e-005 -0.675537 -6.67591 -75.1986 -2.28824 -1.6041e-006 -1.61639e-006 -1.53159 17.9986 68.3941 -19.8511 -8.13607 25.2327 3.48756 
51.946 67.7316 19.6727 -0.666594 27.2063 1.02918 1.04612 2.96764 -0.0258335 2.11413 9.93251 -0.247468 2.12412 11.5769 -0.284158 -12.9273 9.77661 -9.56128 10.3249 19.2839 -13.7978 40.3824 -9.68503 -5.86339 129.884 30.8412 -41.4696 -2.72341e-005 4.11935e-006 1.97371e-005 23.6113 73.1147 -21.0962 -7.69094e-006 6.65225e-006 -3 8.02981 -4.95142 0.697644 -56.7188 -6.49915 3.93104 -116.081 31.5384 37.89 1.94688e-005 -3.78355e-006 1.07638e-005 -1.26351 70.8831 0.941047 4.42015e-006 -2.92495e-007 3.00659 -8.02914 -4.95145 -0.697676 45.4152 79.651 138.306 180 7.01597e-015 179.168 163.85 74.7981 -170.223 3.98723e-007 3.14543e-006 1.52896 -24.2154 68.9361 20.4903 8.13649 25.2327 -3.48773 -53.3113 77.6959 -128.036 4.5067e-006 -1.99009e-005 -0.679725 -6.61375 -75.3303 -2.2421 -1.6041e-006 -1.61639e-006 -1.53798 17.9769 68.3632 -19.8254 -8.13607 25.2327 3.48756 
51.9167 67.6159 19.6043 -0.62767 27.0978 1.02722 1.04379 2.9698 -0.0263955 2.10959 9.93716 -0.247412 2.11958 11.5816 -0.284024 -12.9696 9.7608 -9.55538 10.3586 19.3065 -13.8055 40.3467 -9.69209 -5.86926 129.81 30.77 -41.5351 -2.72341e-005 4.11935e-006 1.97371e-005 23.6729 73.3065 -21.2194 -7.69094e-006 6.65225e-006 -3 8.02981 -4.95142 0.697644 -56.7097 -6.49197 3.92595 -116.075 31.5179 37.9533 1.94688e-005 -3.78355e-006 1.07638e-005 -1.17913 70.9598 0.879871 4.42015e-006 -2.92495e-007 3.00659 -8.02914 -4.95145 -0.697676 45.2409 79.5856 138.498 180 7.01597e-015 179.166 163.876 74.9466 -170.224 3.98723e-007 3.14543e-006 1.53863 -24.2102 68.913 20.4669 8.13649 25.2327 -3.48773 -53.0904 77.6799 -128.298 4.5067e-006 -1.99009e-005 -0.683909 -6.55011 -75.4605 -2.19451 -1.6041e-006 -1.61639e-006 -1.54428 17.9546 68.3317 -19.7994 -8.13607 25.2327 3.48756 
51.9357 67.5098 19.5488 -0.588755 26.9876 1.02489 1.04151 2.97213 -0.0269965 2.10518 9.94216 -0.24746 2.11516 11.5866 -0.283998 -13.0129 9.74541 -9.54894 10.3925 19.3292 -13.813 40.311 -9.6992 -5.87518 129.737 30.7001 -41.6016 -2.72341e-005 4.11935e-006 1.97371e-005 23.7348 73.4953 -21.3426 -7.69094e-006 6.65225e-006 -3 8.02981 -4.95142 0.697644 -56.7016 -6.48478 3.9209 -116.07 31.4989 38.0148 1.94688e-005 -3.78355e-006 1.07638e-005 -1.09737 71.0324 0.820336 4.42015e-006 -2.92495e-007 3.00659 -8.02914 -4.95145 -0.697676 45.0727 79.5229 138.684 180 7.01596e-015 179.164 163.906 75.0935 -170.229 3.98723e-007 3.14543e-006 1.54828 -24.2039 68.889 20.4426 8.13649 25.2327 -3.48773 -52.8811 77.6648 -128.547 4.5067e-006 -1.99009e-005 -0.688081 -6.48527 -75.5893 -2.14567 -1.6041e-006 -1.61639e-006 -1.55049 17.9318 68.2998 -19.773 -8.13607 25.2327 3.48756 
51.9184 67.3953 19.4839 -0.549962 26.8761 1.0221 1.03927 2.97456 -0.027621 2.1009 9.94736 -0.247604 2.11087 11.5918 -0.28407 -13.057 9.73082 -9.54196 10.4266 19.3515 -13.8202 40.2754 -9.70633 -5.88112 129.667 30.6322 -41.6693 -2.72341e-005 4.11935e-006 1.97371e-005 23.7963 73.68 -21.4646 -7.69094e-006 6.65225e-006 -3 8.02981 -4.95142 0.697644 -56.6947 -6.47786 3.91607 -116.065 31.4812 38.0747 1.94688e-005 -3.78355e-006 1.07638e-005 -1.0181 71.1012 0.76235 4.42015e-006 -2.92495e-007 3.00659 -8.02914 -4.95145 -0.697676 44.9095 79.4625 138.863 180 7.01596e-015 179.162 163.939 75.239 -170.236 3.98723e-007 3.14543e-006 1.55789 -24.1967 68.8648 20.418 8.13649 25.2327 -3.48773 -52.6823 77.65 -128.786 4.5067e-006 -1.99009e-005 -0.692234 -6.41952 -75.7166 -2.09583 -1.6041e-006 -1.61639e-006 -1.55662 17.9087 68.2673 -19.7461 -8.13607 25.2327 3.48756 
51.931 67.2906 19.4277 -0.5114 26.7637 1.01872 1.03708 2.97701 -0.0282538 2.09674 9.95259 -0.247837 2.1067 11.597 -0.284233 -13.102 9.71741 -9.53445 10.4609 19.3732 -13.8271 40.2401 -9.71343 -5.88705 129.598 30.5669 -41.7385 -2.72341e-005 4.11935e-006 1.97371e-005 23.8565 73.8595 -21.5844 -7.69094e-006 6.65225e-006 -3 8.02981 -4.95142 0.697644 -56.6889 -6.47147 3.91166 -116.059 31.4647 38.1327 1.94688e-005 -3.78355e-006 1.07638e-005 -0.941218 71.1666 0.705815 4.42015e-006 -2.92495e-007 3.00659 -8.02914 -4.95145 -0.697676 44.7501 79.4041 139.039 180 7.01596e-015 179.16 163.974 75.383 -170.244 3.98723e-007 3.14543e-006 1.56743 -24.1894 68.8406 20.3936 8.13649 25.2327 -3.48773 -52.4934 77.6352 -129.014 4.5067e-006 -1.99009e-005 -0.69636 -6.35315 -75.8425 -2.04521 -1.6041e-006 -1.61639e-006 -1.5627 17.8853 68.234 -19.7188 -8.13607 25.2327 3.48756 
51.9411 67.1864 19.3669 -0.473185 26.6506 1.01465 1.03492 2.9794 -0.0288795 2.09271 9.95768 -0.24815 2.10267 11.6021 -0.284479 -13.1478 9.70554 -9.52643 10.4952 19.3938 -13.8339 40.2055 -9.72047 -5.89294 129.532 30.5047 -41.8093 -2.72341e-005 4.11935e-006 1.97371e-005 23.9145 74.0326 -21.7007 -7.69094e-006 6.65225e-006 -3 8.02981 -4.95142 0.697644 -56.6844 -6.4659 3.90783 -116.053 31.4492 38.1889 1.94688e-005 -3.78355e-006 1.07638e-005 -0.866588 71.2287 0.650629 4.42015e-006 -2.92495e-007 3.00659 -8.02914 -4.95145 -0.697676 44.5934 79.3473 139.212 180 7.01595e-015 179.158 164.01 75.5256 -170.255 3.98723e-007 3.14543e-006 1.57689 -24.1821 68.817 20.3699 8.13649 25.2327 -3.48773 -52.3134 77.62 -129.233 4.5067e-006 -1.99009e-005 -0.700452 -6.28646 -75.9669 -1.99406 -1.6041e-006 -1.61639e-006 -1.56873 17.8616 68.2001 -19.691 -8.13607 25.2327 3.48756 
51.9399 67.0752 19.3081 -0.435429 26.5371 1.00977 1.03281 2.98165 -0.0294826 2.08881 9.96245 -0.248537 2.09877 11.6069 -0.284801 -13.1945 9.69559 -9.5179 10.5297 19.4131 -13.8404 40.1717 -9.72742 -5.89876 129.469 30.4462 -41.882 -2.72341e-005 4.11935e-006 1.97371e-005 23.9694 74.1981 -21.8121 -7.69094e-006 6.65225e-006 -3 8.02981 -4.95142 0.697644 -56.6812 -6.46141 3.90477 -116.047 31.4344 38.2433 1.94688e-005 -3.78355e-006 1.07638e-005 -0.794077 71.2879 0.596682 4.42015e-006 -2.92495e-007 3.00659 -8.02914 -4.95145 -0.697676 44.4384 79.2919 139.382 180 7.01595e-015 179.156 164.048 75.667 -170.266 3.98723e-007 3.14543e-006 1.58623 -24.1755 68.7945 20.3472 8.13649 25.2327 -3.48773 -52.1416 77.6039 -129.444 4.5067e-006 -1.99009e-005 -0.704503 -6.21977 -76.0898 -1.94265 -1.6041e-006 -1.61639e-006 -1.57473 17.8378 68.1654 -19.6625 -8.13607 25.2327 3.48756 
